<svg width="46" height="46" viewBox="0 0 46 46" fill="none" xmlns="http://www.w3.org/2000/svg">
<circle cx="23.3867" cy="23.0771" r="22.4336" fill="#5E8DD1"/>
<path d="M17.612 23.5722C17.7144 23.5285 17.8246 23.5057 17.936 23.5053C18.0474 23.5049 18.1577 23.5268 18.2605 23.5698C18.3633 23.6128 18.4564 23.6759 18.5343 23.7555C18.6123 23.8351 18.6735 23.9295 18.7143 24.0331C18.7552 24.1367 18.7748 24.2475 18.7721 24.3589C18.7694 24.4702 18.7444 24.5799 18.6986 24.6814C18.6528 24.783 18.5871 24.8743 18.5053 24.95C18.4236 25.0257 18.3276 25.0842 18.2228 25.1222C17.6658 25.3417 17.1877 25.7237 16.8507 26.2186C16.5138 26.7136 16.3336 27.2984 16.3337 27.8972V29.3472C16.3337 29.5682 16.4215 29.7801 16.5777 29.9364C16.734 30.0927 16.946 30.1805 17.167 30.1805H23.8337C24.0547 30.1805 24.2666 30.0927 24.4229 29.9364C24.5792 29.7801 24.667 29.5682 24.667 29.3472V27.9747C24.6671 27.3567 24.4794 26.7534 24.1287 26.2445C23.7781 25.7357 23.2811 25.3454 22.7037 25.1255C22.5983 25.0889 22.5013 25.0316 22.4185 24.9568C22.3357 24.8821 22.2687 24.7915 22.2216 24.6904C22.1745 24.5893 22.1481 24.4798 22.1441 24.3683C22.14 24.2568 22.1584 24.1457 22.1982 24.0414C22.2379 23.9372 22.2982 23.842 22.3754 23.7615C22.4526 23.681 22.5451 23.6168 22.6476 23.5727C22.7501 23.5286 22.8604 23.5056 22.9719 23.5049C23.0835 23.5042 23.194 23.526 23.297 23.5688C24.19 23.909 24.9586 24.5124 25.5009 25.2993C26.0432 26.0861 26.3336 27.0191 26.3337 27.9747V29.3472C26.3337 30.0102 26.0703 30.6461 25.6014 31.1149C25.1326 31.5838 24.4967 31.8472 23.8337 31.8472H17.167C16.504 31.8472 15.8681 31.5838 15.3992 31.1149C14.9304 30.6461 14.667 30.0102 14.667 29.3472V27.8972C14.6671 26.964 14.9481 26.0524 15.4733 25.281C15.9985 24.5097 16.7437 23.9142 17.612 23.5722ZM20.5003 15.1805C21.3844 15.1805 22.2322 15.5317 22.8573 16.1568C23.4825 16.7819 23.8337 17.6298 23.8337 18.5138V20.1805C23.8337 21.0646 23.4825 21.9124 22.8573 22.5375C22.2322 23.1626 21.3844 23.5138 20.5003 23.5138C19.6163 23.5138 18.7684 23.1626 18.1433 22.5375C17.5182 21.9124 17.167 21.0646 17.167 20.1805V18.5138C17.167 17.6298 17.5182 16.7819 18.1433 16.1568C18.7684 15.5317 19.6163 15.1805 20.5003 15.1805ZM20.5003 16.8472C20.0583 16.8472 19.6344 17.0228 19.3218 17.3353C19.0093 17.6479 18.8337 18.0718 18.8337 18.5138V20.1805C18.8337 20.6225 19.0093 21.0465 19.3218 21.359C19.6344 21.6716 20.0583 21.8472 20.5003 21.8472C20.9424 21.8472 21.3663 21.6716 21.6788 21.359C21.9914 21.0465 22.167 20.6225 22.167 20.1805V18.5138C22.167 18.0718 21.9914 17.6479 21.6788 17.3353C21.3663 17.0228 20.9424 16.8472 20.5003 16.8472ZM28.0003 31.0138C27.7793 31.0138 27.5674 30.926 27.4111 30.7698C27.2548 30.6135 27.167 30.4015 27.167 30.1805C27.167 29.9595 27.2548 29.7475 27.4111 29.5912C27.5674 29.435 27.7793 29.3472 28.0003 29.3472H28.8337C29.0547 29.3472 29.2666 29.2594 29.4229 29.1031C29.5792 28.9468 29.667 28.7348 29.667 28.5138V26.9822C29.667 26.3898 29.4805 25.8124 29.1342 25.3319C28.7878 24.8514 28.299 24.492 27.737 24.3047C27.6331 24.2701 27.5371 24.2154 27.4544 24.1437C27.3717 24.072 27.3039 23.9847 27.2549 23.8868C27.2059 23.7889 27.1767 23.6824 27.1689 23.5732C27.1611 23.464 27.1749 23.3544 27.2095 23.2505C27.2441 23.1466 27.2988 23.0506 27.3705 22.9679C27.4422 22.8852 27.5294 22.8174 27.6273 22.7684C27.7252 22.7194 27.8318 22.6902 27.941 22.6824C28.0502 22.6746 28.1598 22.6884 28.2637 22.723C29.1576 23.0209 29.9352 23.5926 30.4862 24.357C31.0372 25.1214 31.3337 26.0399 31.3337 26.9822V28.5138C31.3337 29.1769 31.0703 29.8128 30.6014 30.2816C30.1326 30.7504 29.4967 31.0138 28.8337 31.0138H28.0003ZM25.5003 16.0138C25.2793 16.0138 25.0674 15.926 24.9111 15.7698C24.7548 15.6135 24.667 15.4015 24.667 15.1805C24.667 14.9595 24.7548 14.7475 24.9111 14.5912C25.0674 14.435 25.2793 14.3472 25.5003 14.3472C26.3844 14.3472 27.2322 14.6984 27.8573 15.3235C28.4825 15.9486 28.8337 16.7964 28.8337 17.6805V19.3472C28.8337 20.2312 28.4825 21.0791 27.8573 21.7042C27.2322 22.3293 26.3844 22.6805 25.5003 22.6805C25.2793 22.6805 25.0674 22.5927 24.9111 22.4364C24.7548 22.2801 24.667 22.0682 24.667 21.8472C24.667 21.6262 24.7548 21.4142 24.9111 21.2579C25.0674 21.1016 25.2793 21.0138 25.5003 21.0138C25.9424 21.0138 26.3663 20.8382 26.6788 20.5257C26.9914 20.2131 27.167 19.7892 27.167 19.3472V17.6805C27.167 17.2385 26.9914 16.8146 26.6788 16.502C26.3663 16.1894 25.9424 16.0138 25.5003 16.0138Z" fill="white"/>
</svg>
