<svg width="46" height="46" viewBox="0 0 46 46" fill="none" xmlns="http://www.w3.org/2000/svg">
<circle cx="22.8633" cy="23.0771" r="22.4336" fill="#FFA500"/>
<path d="M23.8633 22.0972H27.8633C28.1285 22.0972 28.3829 22.2025 28.5704 22.3901C28.7579 22.5776 28.8633 22.832 28.8633 23.0972C28.8633 23.3624 28.7579 23.6167 28.5704 23.8043C28.3829 23.9918 28.1285 24.0972 27.8633 24.0972H22.8633C22.5981 24.0972 22.3437 23.9918 22.1562 23.8043C21.9686 23.6167 21.8633 23.3624 21.8633 23.0972V17.0972C21.8633 16.832 21.9686 16.5776 22.1562 16.3901C22.3437 16.2025 22.5981 16.0972 22.8633 16.0972C23.1285 16.0972 23.3829 16.2025 23.5704 16.3901C23.7579 16.5776 23.8633 16.832 23.8633 17.0972V22.0972ZM22.8633 33.0972C17.3403 33.0972 12.8633 28.6202 12.8633 23.0972C12.8633 17.5742 17.3403 13.0972 22.8633 13.0972C28.3863 13.0972 32.8633 17.5742 32.8633 23.0972C32.8633 28.6202 28.3863 33.0972 22.8633 33.0972ZM22.8633 31.0972C24.985 31.0972 27.0198 30.2543 28.5201 28.754C30.0204 27.2537 30.8633 25.2189 30.8633 23.0972C30.8633 20.9754 30.0204 18.9406 28.5201 17.4403C27.0198 15.94 24.985 15.0972 22.8633 15.0972C20.7415 15.0972 18.7067 15.94 17.2064 17.4403C15.7061 18.9406 14.8633 20.9754 14.8633 23.0972C14.8633 25.2189 15.7061 27.2537 17.2064 28.754C18.7067 30.2543 20.7415 31.0972 22.8633 31.0972Z" fill="white"/>
</svg>
