<svg width="45" height="46" viewBox="0 0 45 46" fill="none" xmlns="http://www.w3.org/2000/svg">
<circle cx="22.4336" cy="23.0771" r="22.4336" fill="#FF5A5A"/>
<path d="M17 15.0972C17.2652 15.0972 17.5196 15.2025 17.7071 15.3901C17.8946 15.5776 18 15.832 18 16.0972V30.0972C18 30.3624 17.8946 30.6167 17.7071 30.8043C17.5196 30.9918 17.2652 31.0972 17 31.0972C16.7348 31.0972 16.4804 30.9918 16.2929 30.8043C16.1054 30.6167 16 30.3624 16 30.0972V16.0972C16 15.832 16.1054 15.5776 16.2929 15.3901C16.4804 15.2025 16.7348 15.0972 17 15.0972ZM29 19.0972C29.2652 19.0972 29.5196 19.2025 29.7071 19.3901C29.8946 19.5776 30 19.832 30 20.0972V30.0972C30 30.3624 29.8946 30.6167 29.7071 30.8043C29.5196 30.9918 29.2652 31.0972 29 31.0972C28.7348 31.0972 28.4804 30.9918 28.2929 30.8043C28.1054 30.6167 28 30.3624 28 30.0972V20.0972C28 19.832 28.1054 19.5776 28.2929 19.3901C28.4804 19.2025 28.7348 19.0972 29 19.0972ZM23 23.0972C23.2652 23.0972 23.5196 23.2025 23.7071 23.3901C23.8946 23.5776 24 23.832 24 24.0972V30.0972C24 30.3624 23.8946 30.6167 23.7071 30.8043C23.5196 30.9918 23.2652 31.0972 23 31.0972C22.7348 31.0972 22.4804 30.9918 22.2929 30.8043C22.1054 30.6167 22 30.3624 22 30.0972V24.0972C22 23.832 22.1054 23.5776 22.2929 23.3901C22.4804 23.2025 22.7348 23.0972 23 23.0972Z" fill="white"/>
</svg>
