<svg width="46" height="46" viewBox="0 0 46 46" fill="none" xmlns="http://www.w3.org/2000/svg">
<circle cx="23.2783" cy="23.0771" r="22.4336" fill="#38C173"/>
<path d="M20.3738 23.1672C20.4968 23.1147 20.629 23.0874 20.7627 23.0869C20.8963 23.0865 21.0287 23.1128 21.1521 23.1644C21.2754 23.2159 21.3871 23.2917 21.4807 23.3872C21.5742 23.4827 21.6476 23.5959 21.6967 23.7203C21.7457 23.8447 21.7692 23.9776 21.766 24.1112C21.7628 24.2448 21.7327 24.3765 21.6778 24.4983C21.6228 24.6201 21.5439 24.7297 21.4459 24.8206C21.3478 24.9114 21.2325 24.9816 21.1068 25.0272C20.4384 25.2905 19.8647 25.749 19.4603 26.3429C19.056 26.9368 18.8398 27.6387 18.8398 28.3572V30.0972C18.8398 30.3624 18.9452 30.6167 19.1327 30.8043C19.3203 30.9918 19.5746 31.0972 19.8398 31.0972H27.8398C28.1051 31.0972 28.3594 30.9918 28.547 30.8043C28.7345 30.6167 28.8398 30.3624 28.8398 30.0972V28.4502C28.84 27.7086 28.6147 26.9846 28.194 26.374C27.7732 25.7634 27.1768 25.2951 26.4838 25.0312C26.3574 24.9873 26.241 24.9185 26.1417 24.8288C26.0423 24.7391 25.9619 24.6304 25.9054 24.509C25.8488 24.3877 25.8172 24.2563 25.8123 24.1225C25.8075 23.9887 25.8296 23.8554 25.8773 23.7303C25.9249 23.6052 25.9972 23.491 26.0899 23.3943C26.1825 23.2977 26.2936 23.2207 26.4166 23.1678C26.5396 23.1149 26.6719 23.0872 26.8057 23.0865C26.9396 23.0857 27.0723 23.1117 27.1958 23.1632C28.2674 23.5713 29.1897 24.2955 29.8405 25.2397C30.4912 26.1838 30.8398 27.3035 30.8398 28.4502V30.0972C30.8398 30.8928 30.5238 31.6559 29.9612 32.2185C29.3986 32.7811 28.6355 33.0972 27.8398 33.0972H19.8398C19.0442 33.0972 18.2811 32.7811 17.7185 32.2185C17.1559 31.6559 16.8398 30.8928 16.8398 30.0972V28.3572C16.84 27.2373 17.1771 26.1434 17.8074 25.2178C18.4377 24.2922 19.3319 23.5777 20.3738 23.1672ZM23.8398 13.0972C24.9007 13.0972 25.9181 13.5186 26.6683 14.2687C27.4184 15.0189 27.8398 16.0363 27.8398 17.0972V19.0972C27.8398 20.158 27.4184 21.1754 26.6683 21.9256C25.9181 22.6757 24.9007 23.0972 23.8398 23.0972C22.779 23.0972 21.7616 22.6757 21.0114 21.9256C20.2613 21.1754 19.8398 20.158 19.8398 19.0972V17.0972C19.8398 16.0363 20.2613 15.0189 21.0114 14.2687C21.7616 13.5186 22.779 13.0972 23.8398 13.0972ZM23.8398 15.0972C23.3094 15.0972 22.8007 15.3079 22.4256 15.683C22.0506 16.058 21.8398 16.5667 21.8398 17.0972V19.0972C21.8398 19.6276 22.0506 20.1363 22.4256 20.5114C22.8007 20.8865 23.3094 21.0972 23.8398 21.0972C24.3703 21.0972 24.879 20.8865 25.2541 20.5114C25.6291 20.1363 25.8398 19.6276 25.8398 19.0972V17.0972C25.8398 16.5667 25.6291 16.058 25.2541 15.683C24.879 15.3079 24.3703 15.0972 23.8398 15.0972Z" fill="white"/>
</svg>
