<svg width="7" height="7" viewBox="0 0 7 7" fill="none" xmlns="http://www.w3.org/2000/svg">
<path fill-rule="evenodd" clip-rule="evenodd" d="M6.24973 1.44972C6.5811 1.11835 6.5811 0.581097 6.24973 0.249727C5.91836 -0.0816418 5.3811 -0.0816417 5.04973 0.249727L3.25013 2.04933L1.45039 0.249599C1.11903 -0.0817699 0.58177 -0.0817699 0.250401 0.249599C-0.0809679 0.580968 -0.080968 1.11822 0.250401 1.44959L2.05013 3.24933L0.24976 5.0497C-0.0816089 5.38107 -0.081609 5.91833 0.24976 6.24969C0.581129 6.58106 1.11838 6.58106 1.44975 6.24969L3.25013 4.44932L5.05038 6.24957C5.38174 6.58093 5.919 6.58093 6.25037 6.24957C6.58174 5.9182 6.58174 5.38094 6.25037 5.04957L4.45012 3.24933L6.24973 1.44972Z" fill="#FFA500"/>
</svg>
