<svg width="12" height="12" viewBox="0 0 12 12" fill="none" xmlns="http://www.w3.org/2000/svg">
<path d="M4.25 1.33317V0.749837C4.25 0.595128 4.31146 0.446755 4.42085 0.337358C4.53025 0.227962 4.67862 0.166504 4.83333 0.166504L7.16667 0.166504C7.32138 0.166504 7.46975 0.227962 7.57915 0.337358C7.68854 0.446755 7.75 0.595128 7.75 0.749837V1.33317H10.0833C10.3928 1.33317 10.6895 1.45609 10.9083 1.67488C11.1271 1.89367 11.25 2.19042 11.25 2.49984V3.08317C11.25 3.39259 11.1271 3.68934 10.9083 3.90813C10.6895 4.12692 10.3928 4.24984 10.0833 4.24984H10.0057L9.60908 10.1998C9.57949 10.6428 9.38269 11.0579 9.05852 11.3611C8.73436 11.6644 8.30707 11.8331 7.86317 11.8332H4.1485C3.70498 11.8332 3.278 11.6647 2.9539 11.362C2.62979 11.0592 2.43274 10.6447 2.40258 10.2022L1.99658 4.24984H1.91667C1.60725 4.24984 1.3105 4.12692 1.09171 3.90813C0.872916 3.68934 0.75 3.39259 0.75 3.08317V2.49984C0.75 2.19042 0.872916 1.89367 1.09171 1.67488C1.3105 1.45609 1.60725 1.33317 1.91667 1.33317H4.25ZM10.0833 2.49984H1.91667V3.08317H10.0833V2.49984ZM3.16558 4.24984L3.56633 10.1228C3.57639 10.2704 3.6421 10.4086 3.75018 10.5095C3.85825 10.6104 4.00063 10.6666 4.1485 10.6665H7.86317C8.01123 10.6665 8.15376 10.6103 8.26187 10.5091C8.36997 10.4079 8.43556 10.2694 8.44533 10.1217L8.83617 4.24984H3.16617H3.16558ZM4.83333 4.83317C4.98804 4.83317 5.13642 4.89463 5.24581 5.00403C5.35521 5.11342 5.41667 5.26179 5.41667 5.4165V9.49984C5.41667 9.65455 5.35521 9.80292 5.24581 9.91232C5.13642 10.0217 4.98804 10.0832 4.83333 10.0832C4.67862 10.0832 4.53025 10.0217 4.42085 9.91232C4.31146 9.80292 4.25 9.65455 4.25 9.49984V5.4165C4.25 5.26179 4.31146 5.11342 4.42085 5.00403C4.53025 4.89463 4.67862 4.83317 4.83333 4.83317ZM7.16667 4.83317C7.32138 4.83317 7.46975 4.89463 7.57915 5.00403C7.68854 5.11342 7.75 5.26179 7.75 5.4165V9.49984C7.75 9.65455 7.68854 9.80292 7.57915 9.91232C7.46975 10.0217 7.32138 10.0832 7.16667 10.0832C7.01196 10.0832 6.86358 10.0217 6.75419 9.91232C6.64479 9.80292 6.58333 9.65455 6.58333 9.49984V5.4165C6.58333 5.26179 6.64479 5.11342 6.75419 5.00403C6.86358 4.89463 7.01196 4.83317 7.16667 4.83317Z" fill="white"/>
</svg>
