<svg width="12" height="12" viewBox="0 0 12 12" fill="none" xmlns="http://www.w3.org/2000/svg">
<path d="M7.598 3.65022L2.32584 8.92239L1.98109 10.0984L3.13317 9.76531L8.42284 4.47564L7.598 3.65022ZM8.4975 2.75072L9.32234 3.57556L10.0912 2.80672C10.1458 2.75203 10.1766 2.67785 10.1766 2.60051C10.1766 2.52317 10.1458 2.449 10.0912 2.39431L9.67817 1.98189C9.62347 1.92721 9.5493 1.89649 9.47196 1.89649C9.39462 1.89649 9.32045 1.92721 9.26575 1.98189L8.49809 2.75072H8.4975ZM10.5036 1.15706L10.916 1.56947C11.1894 1.84295 11.343 2.21382 11.343 2.60051C11.343 2.98721 11.1894 3.35808 10.916 3.63156L3.74567 10.8025L1.284 11.5141C1.18366 11.5431 1.0774 11.5445 0.976298 11.5184C0.875198 11.4922 0.782974 11.4394 0.709252 11.3655C0.63553 11.2915 0.583013 11.1991 0.557186 11.0979C0.531358 10.9967 0.533165 10.8905 0.56242 10.7902L1.29042 8.30814L8.44209 1.15647C8.71556 0.883077 9.08643 0.729492 9.47313 0.729492C9.85983 0.729492 10.2307 0.883077 10.5042 1.15647L10.5036 1.15706Z" fill="white"/>
</svg>
