<svg width="10" height="12" viewBox="0 0 10 12" fill="none" xmlns="http://www.w3.org/2000/svg">
<path d="M2.60906 5.21867H6.37039C6.45794 5.21867 6.54463 5.23591 6.62551 5.26941C6.7064 5.30292 6.77989 5.35202 6.84179 5.41393C6.9037 5.47583 6.95281 5.54933 6.98631 5.63021C7.01981 5.71109 7.03706 5.79779 7.03706 5.88533C7.03706 5.97288 7.01981 6.05957 6.98631 6.14046C6.95281 6.22134 6.9037 6.29483 6.84179 6.35674C6.77989 6.41864 6.7064 6.46775 6.62551 6.50125C6.54463 6.53476 6.45794 6.552 6.37039 6.552H2.60906L3.35706 7.3C3.48206 7.42509 3.55225 7.59472 3.55219 7.77157C3.55213 7.94842 3.48182 8.11799 3.35672 8.243C3.23163 8.36801 3.062 8.4382 2.88515 8.43814C2.70831 8.43807 2.53873 8.36776 2.41372 8.24267L0.52839 6.35733C0.466166 6.29555 0.416782 6.22207 0.383081 6.14112C0.349381 6.06017 0.332031 5.97335 0.332031 5.88567C0.332031 5.79798 0.349381 5.71116 0.383081 5.63021C0.416782 5.54926 0.466166 5.47578 0.52839 5.414L2.41306 3.52867C2.53806 3.40357 2.70764 3.33326 2.88449 3.3332C3.06133 3.33314 3.23096 3.40333 3.35606 3.52833C3.48115 3.65334 3.55146 3.82292 3.55153 3.99976C3.55159 4.17661 3.4814 4.34624 3.35639 4.47133L2.60906 5.21867ZM8.99972 0C9.17653 0 9.3461 0.0702379 9.47113 0.195262C9.59615 0.320286 9.66639 0.489856 9.66639 0.666667V11.3333C9.66639 11.5101 9.59615 11.6797 9.47113 11.8047C9.3461 11.9298 9.17653 12 8.99972 12C8.82291 12 8.65334 11.9298 8.52832 11.8047C8.4033 11.6797 8.33306 11.5101 8.33306 11.3333V0.666667C8.33306 0.489856 8.4033 0.320286 8.52832 0.195262C8.65334 0.0702379 8.82291 0 8.99972 0Z" fill="white"/>
</svg>
