<svg width="23" height="23" viewBox="0 0 23 23" fill="none" xmlns="http://www.w3.org/2000/svg">
<g clip-path="url(#clip0_31_1177)">
<path d="M19.4061 4.59061C19.3965 4.5064 19.3781 4.42344 19.3511 4.34311V4.26061C19.3071 4.15859 19.245 4.06541 19.1678 3.98561C19.09 3.91252 19 3.85358 18.9019 3.81145H18.8194C18.7349 3.74692 18.6383 3.70015 18.5353 3.67395H18.4894C18.3983 3.66012 18.3056 3.66012 18.2144 3.67395L1.71442 9.17394C1.53103 9.23422 1.37134 9.35086 1.25814 9.50724C1.14493 9.66361 1.08398 9.85173 1.08398 10.0448C1.08398 10.2378 1.14493 10.4259 1.25814 10.5823C1.37134 10.7387 1.53103 10.8553 1.71442 10.9156L9.53359 13.5189L12.1369 21.3381C12.1972 21.5215 12.3138 21.6812 12.4702 21.7944C12.6266 21.9076 12.8147 21.9685 13.0078 21.9685C13.2008 21.9685 13.3889 21.9076 13.5453 21.7944C13.7017 21.6812 13.8183 21.5215 13.8786 21.3381L19.3786 4.83811C19.399 4.75725 19.4082 4.67398 19.4061 4.59061ZM15.0978 6.68978L9.99192 11.7956L4.88609 10.0906L15.0978 6.68978ZM12.9894 18.1939L11.2844 13.0881L16.3903 7.98228L12.9894 18.1939Z" fill="white"/>
</g>
<defs>
<clipPath id="clip0_31_1177">
<rect width="22" height="22" fill="white" transform="translate(0.15625 0.923828)"/>
</clipPath>
</defs>
</svg>
