<svg width="17" height="16" viewBox="0 0 17 16" fill="none" xmlns="http://www.w3.org/2000/svg">
<mask id="path-1-inside-1_31_1108" fill="white">
<path fill-rule="evenodd" clip-rule="evenodd" d="M5.15174 1.16493C3.52031 2.59797 3.23517 5.67094 4.58774 7.24256C5.78888 8.63745 5.69346 8.82574 3.4586 9.47398C1.06146 10.1689 0.320312 11.2279 0.320312 13.9584V16H8.32031H16.3203V13.9584C16.3203 11.2279 15.5792 10.1689 13.182 9.47398C10.9472 8.82574 10.8517 8.63745 12.0529 7.24256C15.5952 3.12721 9.26374 -2.44881 5.15174 1.16493ZM10.8952 1.94371C11.4655 2.49805 11.7415 3.11867 11.5083 3.32404C11.2752 3.5289 10.7043 3.2452 10.2403 2.69287C9.4506 1.75341 9.36146 1.74538 8.8306 2.56835C8.29231 3.40237 4.89174 3.86984 4.89174 3.11013C4.89174 1.14434 9.20831 0.305806 10.8952 1.94371ZM11.2243 4.45129C12.0935 4.45129 11.8169 5.74625 10.6752 7.02213C10.0843 7.68192 9.50203 8.6726 9.38146 9.22342C9.26088 9.77474 8.78317 10.2256 8.32031 10.2256C7.85746 10.2256 7.37974 9.77474 7.25917 9.22342C7.1386 8.6726 6.55631 7.68192 5.96546 7.02213C4.09003 4.9268 6.18831 3.48271 9.9386 4.2876C10.3569 4.37798 10.9357 4.45129 11.2243 4.45129ZM7.17746 11.2911C7.17746 11.6717 6.92946 11.9831 6.62603 11.9831C5.91174 11.9831 4.82317 10.202 5.28774 9.79382C5.78717 9.35497 7.17746 10.4571 7.17746 11.2911ZM11.1592 11.0095C10.4849 12.1161 9.46317 12.3094 9.46317 11.3303C9.46317 10.4712 10.6586 9.44184 11.2706 9.77424C11.5352 9.91785 11.4849 10.4737 11.1592 11.0095ZM4.68603 11.7692C5.31974 12.6182 6.01003 12.9788 6.69917 12.8206C7.50317 12.6358 7.74888 12.8623 7.74888 13.7877C7.74888 14.9174 7.54488 14.9958 4.60603 14.9958H1.46317V13.3388C1.46317 10.5058 3.13631 9.69089 4.68603 11.7692ZM14.4917 11.0792C14.8689 11.4106 15.1775 12.4274 15.1775 13.3388V14.9958H12.0346C9.09574 14.9958 8.89174 14.9174 8.89174 13.7877C8.89174 12.8623 9.13746 12.6358 9.94146 12.8206C10.6306 12.9788 11.3209 12.6182 11.9546 11.7692C13.0306 10.3256 13.4917 10.2005 14.4917 11.0792ZM11.1775 13.4894C11.1775 13.7656 11.8203 13.9915 12.606 13.9915C13.3917 13.9915 14.0346 13.7656 14.0346 13.4894C14.0346 13.2132 13.3917 12.9873 12.606 12.9873C11.8203 12.9873 11.1775 13.2132 11.1775 13.4894Z"/>
</mask>
<path fill-rule="evenodd" clip-rule="evenodd" d="M5.15174 1.16493C3.52031 2.59797 3.23517 5.67094 4.58774 7.24256C5.78888 8.63745 5.69346 8.82574 3.4586 9.47398C1.06146 10.1689 0.320312 11.2279 0.320312 13.9584V16H8.32031H16.3203V13.9584C16.3203 11.2279 15.5792 10.1689 13.182 9.47398C10.9472 8.82574 10.8517 8.63745 12.0529 7.24256C15.5952 3.12721 9.26374 -2.44881 5.15174 1.16493ZM10.8952 1.94371C11.4655 2.49805 11.7415 3.11867 11.5083 3.32404C11.2752 3.5289 10.7043 3.2452 10.2403 2.69287C9.4506 1.75341 9.36146 1.74538 8.8306 2.56835C8.29231 3.40237 4.89174 3.86984 4.89174 3.11013C4.89174 1.14434 9.20831 0.305806 10.8952 1.94371ZM11.2243 4.45129C12.0935 4.45129 11.8169 5.74625 10.6752 7.02213C10.0843 7.68192 9.50203 8.6726 9.38146 9.22342C9.26088 9.77474 8.78317 10.2256 8.32031 10.2256C7.85746 10.2256 7.37974 9.77474 7.25917 9.22342C7.1386 8.6726 6.55631 7.68192 5.96546 7.02213C4.09003 4.9268 6.18831 3.48271 9.9386 4.2876C10.3569 4.37798 10.9357 4.45129 11.2243 4.45129ZM7.17746 11.2911C7.17746 11.6717 6.92946 11.9831 6.62603 11.9831C5.91174 11.9831 4.82317 10.202 5.28774 9.79382C5.78717 9.35497 7.17746 10.4571 7.17746 11.2911ZM11.1592 11.0095C10.4849 12.1161 9.46317 12.3094 9.46317 11.3303C9.46317 10.4712 10.6586 9.44184 11.2706 9.77424C11.5352 9.91785 11.4849 10.4737 11.1592 11.0095ZM4.68603 11.7692C5.31974 12.6182 6.01003 12.9788 6.69917 12.8206C7.50317 12.6358 7.74888 12.8623 7.74888 13.7877C7.74888 14.9174 7.54488 14.9958 4.60603 14.9958H1.46317V13.3388C1.46317 10.5058 3.13631 9.69089 4.68603 11.7692ZM14.4917 11.0792C14.8689 11.4106 15.1775 12.4274 15.1775 13.3388V14.9958H12.0346C9.09574 14.9958 8.89174 14.9174 8.89174 13.7877C8.89174 12.8623 9.13746 12.6358 9.94146 12.8206C10.6306 12.9788 11.3209 12.6182 11.9546 11.7692C13.0306 10.3256 13.4917 10.2005 14.4917 11.0792ZM11.1775 13.4894C11.1775 13.7656 11.8203 13.9915 12.606 13.9915C13.3917 13.9915 14.0346 13.7656 14.0346 13.4894C14.0346 13.2132 13.3917 12.9873 12.606 12.9873C11.8203 12.9873 11.1775 13.2132 11.1775 13.4894Z" fill="white"/>
<path d="M5.15174 1.16493L34.1895 34.2226L34.1975 34.2155L5.15174 1.16493ZM4.58774 7.24256L-28.7622 35.9441L-28.7542 35.9535L4.58774 7.24256ZM3.4586 9.47398L15.7098 51.734L15.7159 51.7322L3.4586 9.47398ZM0.320312 16H-43.6797V60H0.320312V16ZM16.3203 16V60H60.3203V16H16.3203ZM13.182 9.47398L0.924762 51.7322L0.930862 51.734L13.182 9.47398ZM12.0529 7.24256L45.3948 35.9535L45.4007 35.9466L12.0529 7.24256ZM10.8952 1.94371L41.5636 -29.607L41.555 -29.6153L41.5465 -29.6236L10.8952 1.94371ZM11.5083 3.32404L40.5518 36.3766L40.5719 36.359L40.5919 36.3413L11.5083 3.32404ZM10.2403 2.69287L43.93 -25.6091L43.9213 -25.6195L10.2403 2.69287ZM8.8306 2.56835L45.7994 26.4285L45.8055 26.419L8.8306 2.56835ZM10.6752 7.02213L43.4528 36.3756L43.4584 36.3693L43.464 36.3631L10.6752 7.02213ZM9.38146 9.22342L-33.6009 -0.185116L-33.6026 -0.176938L9.38146 9.22342ZM7.25917 9.22342L50.2433 -0.176938L50.2415 -0.185116L7.25917 9.22342ZM5.96546 7.02213L-26.8201 36.3668L-26.8122 36.3756L5.96546 7.02213ZM9.9386 4.2876L19.2315 -38.7199L19.2016 -38.7263L19.1717 -38.7327L9.9386 4.2876ZM11.1592 11.0095L48.7339 33.9035L48.7452 33.8851L48.7564 33.8666L11.1592 11.0095ZM11.2706 9.77424L-9.72991 48.4392L-9.71932 48.4449L11.2706 9.77424ZM4.68603 11.7692L-30.587 38.0715L-30.5813 38.0791L-30.5756 38.0868L4.68603 11.7692ZM6.69917 12.8206L16.5418 55.7056L16.5545 55.7027L6.69917 12.8206ZM1.46317 14.9958H-42.5368V58.9958H1.46317V14.9958ZM15.1775 14.9958V58.9958H59.1775V14.9958H15.1775ZM9.94146 12.8206L0.0860815 55.7027L0.0988021 55.7056L9.94146 12.8206ZM11.9546 11.7692L47.2162 38.0868L47.2246 38.0756L47.2329 38.0644L11.9546 11.7692ZM-23.886 -31.8927C-35.0606 -22.077 -39.1774 -9.43643 -40.061 0.0862028C-40.9255 9.40172 -39.3664 23.6225 -28.7622 35.9441L37.9377 -21.459C47.1893 -10.709 48.2147 1.18948 47.5625 8.21735C46.8911 15.4523 43.7327 25.8399 34.1895 34.2226L-23.886 -31.8927ZM-28.7542 35.9535C-28.7835 35.9195 -29.2497 35.3819 -29.8568 34.5953C-30.3929 33.9007 -31.7551 32.0993 -33.1842 29.5401C-35.456 25.4716 -43.9053 8.44701 -33.9471 -11.23C-26.3415 -26.2583 -12.9354 -31.2443 -12.5997 -31.3884C-10.0721 -32.4727 -8.0142 -33.0118 -8.79867 -32.7843L15.7159 51.7322C16.0488 51.6356 18.9567 50.8299 22.0932 49.4844C23.0379 49.0791 36.8118 43.8373 44.5705 28.5065C54.6817 8.52705 46.1708 -8.84669 43.6489 -13.363C42.0947 -16.1462 40.5604 -18.1962 39.8083 -19.1706C38.9852 -20.2371 38.2592 -21.0856 37.9296 -21.4684L-28.7542 35.9535ZM-8.79257 -32.786C-13.6884 -31.3667 -26.0591 -27.1348 -35.0585 -14.2754C-43.4898 -2.2279 -43.6797 10.0573 -43.6797 13.9584H44.3203C44.3203 15.129 44.501 25.5194 37.0396 36.1811C29.01 47.6547 18.2085 51.0096 15.7098 51.734L-8.79257 -32.786ZM-43.6797 13.9584V16H44.3203V13.9584H-43.6797ZM0.320312 60H8.32031V-28H0.320312V60ZM8.32031 60H16.3203V-28H8.32031V60ZM60.3203 16V13.9584H-27.6797V16H60.3203ZM60.3203 13.9584C60.3203 10.0573 60.1304 -2.22791 51.6992 -14.2754C42.6997 -27.1348 30.329 -31.3667 25.4332 -32.786L0.930862 51.734C-1.56783 51.0096 -12.3694 47.6547 -20.399 36.1811C-27.8603 25.5194 -27.6797 15.129 -27.6797 13.9584H60.3203ZM25.4393 -32.7843C24.6548 -33.0118 26.7127 -32.4727 29.2403 -31.3884C29.5761 -31.2443 42.9822 -26.2583 50.5878 -11.2299C60.5459 8.44702 52.0966 25.4716 49.8249 29.5401C48.3958 32.0993 47.0335 33.9007 46.4974 34.5953C45.8903 35.3819 45.4241 35.9195 45.3948 35.9535L-21.289 -21.4684C-21.6186 -21.0856 -22.3446 -20.2371 -23.1677 -19.1706C-23.9197 -18.1962 -25.4541 -16.1462 -27.0083 -13.363C-29.5301 -8.8467 -38.0411 8.52705 -27.9299 28.5065C-20.1712 43.8373 -6.39727 49.0791 -5.45258 49.4844C-2.31605 50.8299 0.591796 51.6356 0.924762 51.7322L25.4393 -32.7843ZM45.4007 35.9466C54.4458 25.4382 58.6934 11.4789 56.5423 -2.59789C54.5759 -15.4663 47.8123 -25.3218 40.5529 -31.7149C26.5538 -44.0437 -1.27073 -51.7677 -23.8941 -31.8857L34.1975 34.2155C15.6862 50.4838 -6.91663 43.7409 -17.6076 34.3256C-23.2129 29.3891 -28.8008 21.4735 -30.4479 10.6951C-32.2796 -1.29172 -28.5689 -13.0107 -21.2949 -21.4615L45.4007 35.9466ZM-19.7733 33.4944C-22.3709 30.9695 -25.971 26.7867 -28.7059 20.6321C-30.0004 17.7189 -32.2357 11.8485 -32.3993 4.01878C-32.5718 -4.23455 -30.2357 -18.5412 -17.5753 -29.6933L40.5919 36.3413C53.3689 25.0866 55.7579 10.6253 55.5815 2.18057C55.4139 -5.84056 53.1176 -11.9393 51.712 -15.1026C48.7548 -21.7574 44.7315 -26.5277 41.5636 -29.607L-19.7733 33.4944ZM-17.5352 -29.7286C-6.3037 -39.5978 6.44028 -41.0457 14.2884 -40.5073C21.8141 -39.9911 27.4616 -37.6429 30.5599 -36.1015C36.9188 -32.9378 41.2249 -28.8293 43.93 -25.6091L-23.4494 30.9949C-20.2802 34.7673 -15.4568 39.2939 -8.63815 42.6863C-5.31002 44.3421 0.552937 46.7573 8.2658 47.2864C16.301 47.8376 29.2038 46.3483 40.5518 36.3766L-17.5352 -29.7286ZM43.9213 -25.6195C43.7497 -25.8236 43.322 -26.3317 42.7932 -26.9238C42.3034 -27.4723 41.277 -28.602 39.8927 -29.9029C38.8899 -30.8452 29.3184 -40.4439 13.3146 -41.8592C-6.67092 -43.6268 -19.129 -31.9909 -22.7259 -28.2074C-24.7767 -26.0501 -26.1754 -24.1404 -26.7943 -23.2739C-27.4702 -22.3275 -27.9827 -21.5329 -28.1443 -21.2823L45.8055 26.419C45.7766 26.4638 45.383 27.0787 44.8167 27.8716C44.3074 28.5847 43.0089 30.3674 41.0534 32.4244C37.6472 36.0074 25.3603 47.5496 5.56215 45.7986C-10.2543 44.3998 -19.6222 34.9279 -20.3696 34.2256C-21.6262 33.0447 -22.5119 32.0634 -22.8437 31.6919C-23.0487 31.4623 -23.2045 31.282 -23.2909 31.1814C-23.3782 31.0796 -23.4352 31.0118 -23.4407 31.0052L43.9213 -25.6195ZM-28.1382 -21.2918C-23.3621 -28.6919 -17.5909 -32.6985 -14.9619 -34.3563C-11.8963 -36.2894 -9.21881 -37.4222 -7.58032 -38.042C-4.30884 -39.2796 -1.47636 -39.8584 0.665208 -40.1529C2.37276 -40.3877 6.58458 -40.8709 12.0747 -40.0323C14.4367 -39.6716 21.0264 -38.5186 28.2221 -34.0579C36.609 -28.8587 48.8917 -16.6229 48.8917 3.11013H-39.1083C-39.1083 23.0331 -26.7192 35.4204 -18.1443 40.7362C-10.7605 45.3136 -3.90097 46.5481 -1.21172 46.9589C4.93283 47.8973 10.0284 47.3877 12.6534 47.0267C15.7124 46.606 19.496 45.8014 23.5564 44.2654C25.5894 43.4963 28.6209 42.1961 31.9755 40.0808C34.8935 38.2408 40.8887 34.0371 45.7994 26.4285L-28.1382 -21.2918ZM48.8917 3.11013C48.8917 20.5378 38.9228 31.7734 32.3124 36.8261C25.9348 41.7007 19.6666 43.588 15.6523 44.368C11.3321 45.2073 6.39607 45.3964 1.09466 44.397C-3.96294 43.4436 -12.225 40.8236 -19.7561 33.511L41.5465 -29.6236C25.9713 -44.7468 6.94686 -43.5861 -1.13048 -42.0169C-6.43485 -40.9864 -13.8876 -38.6232 -21.1273 -33.0896C-28.5998 -27.3781 -39.1083 -15.3004 -39.1083 3.11013H48.8917ZM11.2243 48.4513C-0.603588 48.4513 -17.3848 42.9984 -26.8048 26.0281C-34.1878 12.7276 -32.2493 0.392173 -31.3256 -3.93259C-29.2391 -13.701 -24.369 -19.7985 -22.1137 -22.3188L43.464 36.3631C46.8611 32.5668 52.4403 25.184 54.7332 14.4491C55.7602 9.64112 57.6762 -3.09781 50.1363 -16.681C40.5593 -33.934 23.4868 -39.5487 11.2243 -39.5487V48.4513ZM-22.1025 -22.3313C-24.6438 -19.4936 -26.6113 -16.6326 -28.0816 -14.1309C-29.0426 -12.4957 -32.0386 -7.32218 -33.6009 -0.185116L52.3638 18.632C51.5103 22.5309 50.3022 25.3957 49.7185 26.7009C49.0176 28.2686 48.3317 29.5288 47.7855 30.4582C46.7842 32.1619 45.4033 34.1976 43.4528 36.3756L-22.1025 -22.3313ZM-33.6026 -0.176938C-31.6729 -9.00112 -27.1218 -16.4958 -21.2296 -22.0598C-15.636 -27.3417 -5.57752 -33.7744 8.32031 -33.7744V54.2256C22.681 54.2256 33.2098 47.5676 39.1881 41.9223C45.465 35.9951 50.3152 27.9993 52.3656 18.6238L-33.6026 -0.176938ZM8.32031 -33.7744C22.2181 -33.7744 32.2766 -27.3417 37.8702 -22.0598C43.7624 -16.4958 48.3135 -9.00112 50.2433 -0.176938L-35.7249 18.6238C-33.6746 27.9993 -28.8244 35.9951 -22.5475 41.9223C-16.5691 47.5676 -6.04037 54.2256 8.32031 54.2256V-33.7744ZM50.2415 -0.185116C48.6792 -7.32218 45.6833 -12.4957 44.7222 -14.1309C43.2519 -16.6326 41.2844 -19.4936 38.7431 -22.3313L-26.8122 36.3756C-28.7626 34.1976 -30.1435 32.1619 -31.1449 30.4582C-31.6911 29.5288 -32.3769 28.2686 -33.0779 26.7009C-33.6616 25.3957 -34.8697 22.5309 -35.7231 18.632L50.2415 -0.185116ZM38.751 -22.3225C41.9304 -18.7703 48.9715 -9.53195 49.2587 4.71047C49.5991 21.5857 40.3817 34.2097 30.788 40.8125C22.5884 46.4558 14.7361 47.6436 10.94 47.9438C6.56082 48.29 3.04748 47.8106 0.705477 47.3079L19.1717 -38.7327C14.9546 -39.6378 9.7726 -40.2386 4.00382 -39.7825C-1.18191 -39.3724 -10.1447 -37.8436 -19.1032 -31.678C-29.4558 -24.5528 -39.0806 -11.2252 -38.7234 6.48494C-38.4193 21.5623 -30.9372 31.7669 -26.8201 36.3668L38.751 -22.3225ZM0.645746 47.2951C2.85448 47.7723 6.74093 48.4513 11.2243 48.4513V-39.5487C12.7938 -39.5487 14.0004 -39.4598 14.5442 -39.4154C15.2059 -39.3613 15.7573 -39.299 16.1782 -39.2455C16.9192 -39.1513 17.9517 -38.9964 19.2315 -38.7199L0.645746 47.2951ZM-36.8225 11.2911C-36.8225 2.15464 -33.8886 -7.49224 -27.3955 -15.6407C-20.8671 -23.8334 -9.15488 -32.0169 6.62603 -32.0169V55.9831C40.0254 55.9831 51.1775 26.1264 51.1775 11.2911H-36.8225ZM6.62603 -32.0169C23.0123 -32.0169 33.1787 -23.0553 35.2635 -21.2043C38.9552 -17.9265 41.4287 -14.5698 43.0567 -11.9064C44.5569 -9.4521 46.9209 -5.01582 48.2314 1.12489C48.7674 3.63615 53.5408 25.9669 34.3313 42.8464L-23.7558 -23.2588C-43.1976 -6.17512 -38.4623 16.5313 -37.8306 19.4913C-36.4244 26.0808 -33.8306 31.0389 -32.0271 33.9894C-30.0957 37.1491 -27.2452 40.9766 -23.163 44.6011C-20.6877 46.7988 -10.1174 55.9831 6.62603 55.9831V-32.0169ZM34.3313 42.8464C18.4742 56.7801 0.599858 53.9141 -5.77228 52.178C-13.0063 50.2071 -18.0617 46.8055 -20.9091 44.5489C-24.0337 42.0726 -27.2461 38.7903 -30.0019 34.5262C-32.4135 30.7946 -36.8225 22.6728 -36.8225 11.2911H51.1775C51.1775 -0.507493 46.5947 -9.07986 43.9067 -13.239C40.8747 -17.9306 37.2834 -21.6173 33.7489 -24.4185C30.4915 -27.0001 24.9948 -30.6471 17.3597 -32.7273C10.5864 -34.5726 -7.64899 -37.4119 -23.7558 -23.2588L34.3313 42.8464ZM-26.4156 -11.8846C-23.5105 -16.6526 -15.0241 -28.0831 1.87898 -31.281C11.8528 -33.168 27.4399 -32.075 40.1368 -19.8614C51.8093 -8.63308 53.4632 4.83965 53.4632 11.3303H-34.5368C-34.5368 18.3105 -32.7553 32.1263 -20.8701 43.5591C-7.96059 55.9773 7.92415 57.1364 18.2376 55.1851C35.8202 51.8587 45.1545 39.7782 48.7339 33.9035L-26.4156 -11.8846ZM53.4632 11.3303C53.4632 20.9995 50.2571 28.3317 47.8295 32.5653C45.2608 37.0448 42.107 40.6417 38.8459 43.4494C35.7503 46.1147 30.8741 49.5157 24.0975 51.6766C17.6616 53.7289 4.37321 56.0992 -9.72991 48.4392L32.2711 -28.8907C17.862 -36.7169 4.19466 -34.3426 -2.63747 -32.164C-9.81038 -29.8767 -15.1002 -26.2269 -18.5712 -23.2385C-23.7884 -18.7466 -34.5368 -7.17552 -34.5368 11.3303H53.4632ZM-9.71932 48.4449C-21.4718 42.0659 -27.5646 32.0149 -30.2518 24.1032C-32.7751 16.6742 -32.741 10.225 -32.3855 6.28813C-31.6718 -1.61647 -28.9309 -7.74723 -26.438 -11.8477L48.7564 33.8666C51.575 29.2304 54.5038 22.5538 55.258 14.2014C55.6955 9.35598 56.6598 -15.6529 32.2605 -28.8965L-9.71932 48.4449ZM-30.5756 38.0868C-25.4532 44.95 -9.06291 61.5822 16.5418 55.7056L-3.14348 -30.0644C7.6702 -32.5463 17.9906 -30.5332 26.0414 -26.3284C33.3231 -22.5253 37.7115 -17.5446 39.9477 -14.5485L-30.5756 38.0868ZM16.5545 55.7027C14.9679 56.0673 10.2483 57.0925 4.07273 56.6522C-2.92967 56.1528 -13.2068 53.6145 -22.2885 45.2471C-30.8409 37.3674 -33.9265 28.3292 -35.0895 23.4786C-36.2209 18.7597 -36.2511 15.0096 -36.2511 13.7877H51.7489C51.7489 12.103 51.6879 7.97761 50.4854 2.9617C49.2512 -2.18584 46.0539 -11.4426 37.3396 -19.4715C19.0115 -36.3579 -2.85388 -30.131 -3.1562 -30.0615L16.5545 55.7027ZM-36.2511 13.7877C-36.2511 13.5034 -36.2579 11.8363 -36.0356 9.67115C-35.8122 7.49449 -35.2252 3.33 -33.3033 -1.58123C-31.2122 -6.92486 -27.7835 -12.5304 -22.5954 -17.4038C-17.6004 -22.0958 -12.4195 -24.7513 -8.50671 -26.2552C-1.91717 -28.788 3.63576 -28.9514 3.79764 -28.9608C4.82349 -29.0201 5.48965 -29.0042 4.60603 -29.0042V58.9958C5.19183 58.9958 6.98557 59.0018 8.87622 58.8925C9.9029 58.8332 16.0579 58.5796 23.0658 55.886C33.0713 52.0402 43.4361 43.7996 48.6455 30.4873C50.6324 25.4099 51.2583 21.0539 51.5044 18.6567C51.7493 16.2711 51.7489 14.3544 51.7489 13.7877H-36.2511ZM4.60603 -29.0042H1.46317V58.9958H4.60603V-29.0042ZM45.4632 14.9958V13.3388H-42.5368V14.9958H45.4632ZM45.4632 13.3388C45.4632 16.6038 45.0286 22.023 42.4688 28.2759C39.976 34.3652 34.0898 44.2647 21.7597 50.27C8.29391 56.8284 -5.31086 55.0845 -14.7877 50.7456C-23.2853 46.8551 -28.2411 41.2175 -30.587 38.0715L39.9591 -14.5331C36.1888 -19.5894 14.336 -43.9967 -16.7728 -28.8454C-29.7149 -22.5421 -36.1162 -12.0376 -38.9712 -5.06367C-41.8931 2.07388 -42.5368 8.65731 -42.5368 13.3388H45.4632ZM-14.5518 44.1318C-20.0473 39.3029 -22.9511 34.2753 -24.2019 31.8921C-25.6788 29.0781 -26.5756 26.5888 -27.1278 24.7691C-28.1944 21.2545 -28.8225 17.435 -28.8225 13.3388H59.1775C59.1775 8.33121 58.3951 3.54768 57.0799 -0.78601C56.3944 -3.04492 53.3149 -13.3799 43.5353 -21.9733L-14.5518 44.1318ZM-28.8225 13.3388V14.9958H59.1775V13.3388H-28.8225ZM15.1775 -29.0042H12.0346V58.9958H15.1775V-29.0042ZM12.0346 -29.0042C11.151 -29.0042 11.8171 -29.0201 12.843 -28.9608C13.0049 -28.9514 18.5578 -28.788 25.1473 -26.2552C29.0602 -24.7513 34.2411 -22.0958 39.2361 -17.4038C44.4241 -12.5304 47.8528 -6.92486 49.9439 -1.58123C51.8658 3.33 52.4528 7.49449 52.6763 9.67115C52.8985 11.8363 52.8917 13.5034 52.8917 13.7877H-35.1083C-35.1083 14.3544 -35.1087 16.2711 -34.8638 18.6567C-34.6177 21.0539 -33.9918 25.4099 -32.0049 30.4873C-26.7955 43.7996 -16.4306 52.0402 -6.42514 55.886C0.582755 58.5796 6.73773 58.8332 7.76441 58.8925C9.65506 59.0018 11.4488 58.9958 12.0346 58.9958V-29.0042ZM52.8917 13.7877C52.8917 15.0096 52.8615 18.7597 51.7301 23.4786C50.5672 28.3292 47.4815 37.3674 38.9291 45.2471C29.8474 53.6145 19.5703 56.1528 12.5679 56.6522C6.39236 57.0925 1.67271 56.0673 0.086082 55.7027L19.7968 -30.0615C19.4945 -30.131 -2.37087 -36.3579 -20.6989 -19.4715C-29.4133 -11.4426 -32.6106 -2.18584 -33.8447 2.9617C-35.0473 7.97761 -35.1083 12.103 -35.1083 13.7877H52.8917ZM0.0988021 55.7056C25.7035 61.5822 42.0938 44.95 47.2162 38.0868L-23.307 -14.5485C-21.0709 -17.5446 -16.6824 -22.5254 -9.40076 -26.3284C-1.35 -30.5332 8.97043 -32.5463 19.7841 -30.0644L0.0988021 55.7056ZM47.2329 38.0644C47.0562 38.3014 45.5495 40.3616 43.0753 42.7277C40.7293 44.9714 34.6186 50.3421 24.7922 53.0129C13.4412 56.0981 3.17551 54.0341 -4.06278 50.8133C-9.97477 48.1827 -13.7307 44.8534 -14.5518 44.1318L43.5353 -21.9733C43.1264 -22.3326 26.3576 -38.6052 1.71113 -31.9062C-8.49 -29.1336 -14.9803 -23.5158 -17.7466 -20.8702C-20.6411 -18.102 -22.609 -15.4849 -23.3237 -14.5261L47.2329 38.0644ZM-32.8225 13.4894C-32.8225 31.9597 -21.9929 43.2547 -16.7578 47.5859C-11.2064 52.1787 -5.81097 54.3642 -2.99313 55.3546C3.04887 57.4782 8.55534 57.9915 12.606 57.9915V-30.0085C15.871 -30.0085 20.6632 -29.6082 26.1873 -27.6665C28.7462 -26.7671 33.9319 -24.6899 39.3381 -20.2171C44.4282 -16.0059 55.1775 -4.84284 55.1775 13.4894H-32.8225ZM12.606 57.9915C16.6567 57.9915 22.1632 57.4782 28.2052 55.3546C31.023 54.3642 36.4185 52.1787 41.9698 47.5859C47.205 43.2547 58.0346 31.9597 58.0346 13.4894H-29.9654C-29.9654 -4.84284 -19.2161 -16.0059 -14.1261 -20.2171C-8.71984 -24.6899 -3.53418 -26.7671 -0.975272 -27.6665C4.54887 -29.6082 9.34106 -30.0085 12.606 -30.0085V57.9915ZM58.0346 13.4894C58.0346 -4.98092 47.205 -16.2758 41.9698 -20.6071C36.4185 -25.1999 31.023 -27.3853 28.2052 -28.3758C22.1632 -30.4994 16.6567 -31.0127 12.606 -31.0127V56.9873C9.34106 56.9873 4.54887 56.587 -0.975272 54.6453C-3.53418 53.7459 -8.71984 51.6687 -14.1261 47.196C-19.2161 42.9848 -29.9654 31.8217 -29.9654 13.4894H58.0346ZM12.606 -31.0127C8.55534 -31.0127 3.04887 -30.4994 -2.99313 -28.3758C-5.81097 -27.3853 -11.2064 -25.1999 -16.7578 -20.6071C-21.9929 -16.2758 -32.8225 -4.98092 -32.8225 13.4894H55.1775C55.1775 31.8217 44.4282 42.9848 39.3381 47.196C33.9319 51.6687 28.7462 53.7459 26.1873 54.6453C20.6632 56.587 15.871 56.9873 12.606 56.9873V-31.0127Z" fill="white" mask="url(#path-1-inside-1_31_1108)"/>
</svg>
