<svg width="16" height="16" viewBox="0 0 16 16" fill="none" xmlns="http://www.w3.org/2000/svg">
<g clip-path="url(#clip0_31_1118)">
<path d="M8.00065 1.3335C6.68211 1.3335 5.39318 1.72449 4.29685 2.45703C3.20052 3.18957 2.34604 4.23077 1.84146 5.44894C1.33687 6.66711 1.20485 8.00756 1.46209 9.30077C1.71932 10.594 2.35426 11.7819 3.28661 12.7142C4.21896 13.6466 5.40685 14.2815 6.70005 14.5387C7.99326 14.796 9.3337 14.6639 10.5519 14.1594C11.7701 13.6548 12.8112 12.8003 13.5438 11.704C14.2763 10.6076 14.6673 9.31871 14.6673 8.00016C14.6673 7.12468 14.4949 6.25778 14.1599 5.44894C13.8248 4.6401 13.3338 3.90517 12.7147 3.28612C12.0956 2.66706 11.3607 2.176 10.5519 1.84097C9.74304 1.50593 8.87613 1.3335 8.00065 1.3335ZM8.00065 13.3335C6.94582 13.3335 5.91467 13.0207 5.03761 12.4347C4.16055 11.8486 3.47696 11.0157 3.0733 10.0411C2.66963 9.0666 2.56401 7.99425 2.7698 6.95968C2.97559 5.92512 3.48354 4.97481 4.22942 4.22893C4.9753 3.48305 5.92561 2.9751 6.96017 2.76931C7.99474 2.56352 9.06709 2.66914 10.0416 3.07281C11.0162 3.47647 11.8491 4.16006 12.4352 5.03712C13.0212 5.91418 13.334 6.94533 13.334 8.00016C13.334 9.41465 12.7721 10.7712 11.7719 11.7714C10.7717 12.7716 9.41514 13.3335 8.00065 13.3335Z" fill="white"/>
<path d="M10.6673 7.33317H8.66732V5.33317C8.66732 5.15636 8.59708 4.98679 8.47206 4.86177C8.34703 4.73674 8.17746 4.6665 8.00065 4.6665C7.82384 4.6665 7.65427 4.73674 7.52925 4.86177C7.40422 4.98679 7.33398 5.15636 7.33398 5.33317V7.99984C7.33398 8.17665 7.40422 8.34622 7.52925 8.47124C7.65427 8.59627 7.82384 8.6665 8.00065 8.6665H10.6673C10.8441 8.6665 11.0137 8.59627 11.1387 8.47124C11.2637 8.34622 11.334 8.17665 11.334 7.99984C11.334 7.82303 11.2637 7.65346 11.1387 7.52843C11.0137 7.40341 10.8441 7.33317 10.6673 7.33317Z" fill="white"/>
</g>
<defs>
<clipPath id="clip0_31_1118">
<rect width="16" height="16" fill="white"/>
</clipPath>
</defs>
</svg>
