<svg width="17" height="16" viewBox="0 0 17 16" fill="none" xmlns="http://www.w3.org/2000/svg">
<g clip-path="url(#clip0_31_1128)">
<path d="M7.58753 1.3999L14.1869 2.34324L15.1295 8.94324L9.00153 15.0712C8.87651 15.1962 8.70697 15.2664 8.5302 15.2664C8.35342 15.2664 8.18388 15.1962 8.05886 15.0712L1.45886 8.47124C1.33388 8.34622 1.26367 8.17668 1.26367 7.9999C1.26367 7.82313 1.33388 7.65359 1.45886 7.52857L7.58753 1.3999ZM8.05886 2.81457L2.87286 7.9999L8.5302 13.6566L13.7155 8.47124L13.0089 3.52124L8.05886 2.81457ZM9.4722 7.05724C9.2221 6.80705 9.08163 6.46776 9.08169 6.114C9.08172 5.93884 9.11625 5.7654 9.18331 5.60358C9.25037 5.44176 9.34865 5.29474 9.47253 5.1709C9.59641 5.04707 9.74347 4.94884 9.90531 4.88184C10.0672 4.81484 10.2406 4.78037 10.4158 4.7804C10.7695 4.78046 11.1088 4.92105 11.3589 5.17124C11.609 5.42142 11.7494 5.76072 11.7494 6.11447C11.7493 6.46823 11.6087 6.80747 11.3585 7.05757C11.1083 7.30767 10.769 7.44814 10.4153 7.44808C10.0615 7.44801 9.72229 7.30742 9.4722 7.05724Z" fill="white"/>
</g>
<defs>
<clipPath id="clip0_31_1128">
<rect width="16" height="16" fill="white" transform="translate(0.320312)"/>
</clipPath>
</defs>
</svg>
