<svg width="16" height="16" viewBox="0 0 16 16" fill="none" xmlns="http://www.w3.org/2000/svg">
<path d="M1.13912 4.50219H15M2.75 1H13.25C13.7141 1 14.1592 1.18449 14.4874 1.51288C14.8156 1.84128 15 2.28668 15 2.75109V13.2489C15 13.7133 14.8156 14.1587 14.4874 14.4871C14.1592 14.8155 13.7141 15 13.25 15H2.75C2.28587 15 1.84075 14.8155 1.51256 14.4871C1.18437 14.1587 1 13.7133 1 13.2489V2.75109C1 2.28668 1.18437 1.84128 1.51256 1.51288C1.84075 1.18449 2.28587 1 2.75 1Z" stroke="white" stroke-linecap="round" stroke-linejoin="round"/>
<path fill-rule="evenodd" clip-rule="evenodd" d="M4.7765 10.3288V9.3841H5.5465C6.131 9.3841 6.52825 9.03826 6.52825 8.53307C6.52825 8.07166 6.16513 7.72144 5.56313 7.72144C4.93925 7.72144 4.55513 8.04189 4.51225 8.59348H3.31875C3.36338 7.45615 4.23838 6.69092 5.627 6.69092C6.99463 6.69092 7.755 7.44739 7.75063 8.35008C7.74625 9.0978 7.27638 9.58986 6.614 9.75183V9.83326C7.47238 9.95671 7.99388 10.5039 7.99388 11.3296C7.99388 12.4109 6.97713 13.177 5.58413 13.177C4.19112 13.177 3.24263 12.4144 3.1875 11.2473H4.42212C4.46062 11.7691 4.90512 12.1027 5.5675 12.1027C6.22113 12.1027 6.67875 11.7472 6.67875 11.2131C6.67875 10.6659 6.25088 10.3288 5.55875 10.3288H4.7765ZM10.639 13.0185V8.1058H10.5629L9.05 9.14945V7.9482L10.6434 6.84939H11.9296V13.0185H10.639Z" fill="white"/>
</svg>
