<svg width="17" height="16" viewBox="0 0 17 16" fill="none" xmlns="http://www.w3.org/2000/svg">
<path fill-rule="evenodd" clip-rule="evenodd" d="M13.0861 3.50016H3.87773L3.09094 2.08989C3.00263 1.9316 2.83556 1.8335 2.6543 1.8335H1.6543C1.37815 1.8335 1.1543 2.05735 1.1543 2.3335C1.1543 2.60964 1.37815 2.8335 1.6543 2.8335H2.3607L3.13716 4.22526L4.92787 8.18742L4.92971 8.19146L5.08743 8.54044L3.28954 10.4582C3.16027 10.5961 3.1198 10.7951 3.18495 10.9725C3.25011 11.1499 3.40975 11.2755 3.59754 11.2969L5.23629 11.4842C7.28608 11.7185 9.35588 11.7185 11.4057 11.4842L13.0444 11.2969C13.3188 11.2656 13.5158 11.0177 13.4844 10.7434C13.4531 10.469 13.2052 10.272 12.9309 10.3034L11.2921 10.4907C9.31778 10.7163 7.32417 10.7163 5.34984 10.4907L4.69949 10.4164L6.01908 9.0088C6.03184 8.99519 6.0437 8.98105 6.05465 8.96646L6.55652 9.03176C7.2598 9.12327 7.97071 9.14121 8.67771 9.08529C10.3267 8.95487 11.855 8.17022 12.9219 6.90621L13.3073 6.44966C13.3203 6.43433 13.3323 6.41823 13.3433 6.40146L14.0615 5.30689C14.5706 4.53105 14.0141 3.50016 13.0861 3.50016ZM6.09181 7.96286C5.98154 7.94851 5.88645 7.87846 5.84002 7.77753L5.83913 7.77557L4.35879 4.50016H13.0861C13.2187 4.50016 13.2982 4.64743 13.2255 4.75827L12.5237 5.82765L12.1578 6.26118C11.2631 7.32109 9.98159 7.97904 8.59887 8.0884C7.96115 8.13884 7.31991 8.12266 6.68555 8.04012L6.09181 7.96286Z" fill="white"/>
<path d="M4.6543 12.3335C4.10201 12.3335 3.6543 12.7812 3.6543 13.3335C3.6543 13.8858 4.10201 14.3335 4.6543 14.3335C5.20658 14.3335 5.6543 13.8858 5.6543 13.3335C5.6543 12.7812 5.20658 12.3335 4.6543 12.3335Z" fill="white"/>
<path d="M10.9876 13.3335C10.9876 12.7812 11.4353 12.3335 11.9876 12.3335C12.5399 12.3335 12.9876 12.7812 12.9876 13.3335C12.9876 13.8858 12.5399 14.3335 11.9876 14.3335C11.4353 14.3335 10.9876 13.8858 10.9876 13.3335Z" fill="white"/>
</svg>
