<svg width="10" height="12" viewBox="0 0 10 12" fill="none" xmlns="http://www.w3.org/2000/svg">
<path d="M2.66602 0.166504H7.33268C7.79681 0.166504 8.24193 0.350878 8.57012 0.679067C8.89831 1.00726 9.08268 1.45238 9.08268 1.9165V10.6665C9.08263 10.8927 9.01684 11.114 8.89331 11.3034C8.76978 11.4929 8.59385 11.6424 8.38691 11.7336C8.17998 11.8249 7.95098 11.8541 7.72777 11.8176C7.50455 11.7811 7.29676 11.6805 7.12968 11.5281L5.39252 9.94317C5.28505 9.84512 5.14482 9.79076 4.99935 9.79076C4.85387 9.79076 4.71365 9.84512 4.60618 9.94317L2.86902 11.5281C2.70193 11.6805 2.49414 11.7811 2.27093 11.8176C2.04772 11.8541 1.81872 11.8249 1.61178 11.7336C1.40485 11.6424 1.22892 11.4929 1.10539 11.3034C0.981861 11.114 0.916068 10.8927 0.916016 10.6665V1.9165C0.916016 1.45238 1.10039 1.00726 1.42858 0.679067C1.75677 0.350878 2.20189 0.166504 2.66602 0.166504Z" fill="#38C173"/>
</svg>
