<svg width="27" height="27" viewBox="0 0 27 27" fill="none" xmlns="http://www.w3.org/2000/svg">
<path d="M9.8079 16.9434L16.5344 9.57829L13.8171 9.70198C13.6161 9.71102 13.4198 9.63986 13.2714 9.50416C13.1978 9.43696 13.1383 9.35595 13.0961 9.26574C13.0538 9.17552 13.0298 9.07788 13.0253 8.97838C13.0209 8.87888 13.036 8.77947 13.07 8.68584C13.1039 8.5922 13.156 8.50616 13.2232 8.43264C13.3589 8.28416 13.548 8.19567 13.7489 8.18664L18.2939 7.98119C18.4947 7.97211 18.691 8.04319 18.8394 8.17879C18.9879 8.31438 19.0765 8.50339 19.0856 8.70425L19.2915 13.2486C19.2961 13.3481 19.281 13.4475 19.2471 13.5412C19.2132 13.6348 19.1612 13.7209 19.0941 13.7945C19.027 13.8681 18.946 13.9277 18.8558 13.97C18.7656 14.0122 18.668 14.0363 18.5685 14.0409C18.469 14.0454 18.3696 14.0303 18.2759 13.9964C18.1823 13.9626 18.0962 13.9106 18.0226 13.8434C17.8741 13.7078 17.7854 13.5188 17.7762 13.3178L17.6537 10.6016L10.9277 17.9661L13.6439 17.8414C13.7434 17.837 13.8428 17.8521 13.9364 17.8861C14.0301 17.92 14.1161 17.9721 14.1896 18.0393C14.2631 18.1064 14.3227 18.1875 14.3649 18.2777C14.4071 18.3679 14.4311 18.4655 14.4356 18.565C14.4401 18.6645 14.4249 18.7639 14.391 18.8576C14.357 18.9512 14.305 19.0372 14.2378 19.1108C14.1706 19.1843 14.0896 19.2439 13.9994 19.2861C13.9092 19.3283 13.8115 19.3523 13.712 19.3568L9.16771 19.5638C9.06818 19.5686 8.96869 19.5537 8.87495 19.5199C8.7812 19.4861 8.69507 19.4341 8.62149 19.3669C8.54791 19.2997 8.48835 19.2186 8.44622 19.1283C8.40408 19.038 8.38022 18.9403 8.37599 18.8407L8.16947 14.2959C8.16022 14.0949 8.2312 13.8984 8.36679 13.7497C8.50238 13.6011 8.69148 13.5123 8.89249 13.5031C9.0935 13.4938 9.28995 13.5648 9.43863 13.7004C9.5873 13.836 9.67603 14.0251 9.68528 14.2261L9.8079 16.9434Z" fill="black"/>
</svg>
